HIERARCHY
ROOT Hips
{
	OFFSET 0.00000 0.00000 0.00000
	CHANNELS 6 Xposition Yposition Zposition Yrotation Zrotation Xrotation 
	JOINT Lumbar
	{
		OFFSET 0 0 0
		CHANNELS 3 Zrotation Xrotation Yrotation
		JOINT Neck
		{
			OFFSET 0.00 0.2701 0.00
			CHANNELS 3 Zrotation Xrotation Yrotation
			End Site
			{
				OFFSET 0.00 0.1379 0.00
			}
		}
		JOINT RightShoulder
		{
			OFFSET 0.0119 0.2289 0.1181
			CHANNELS 3 Zrotation Xrotation Yrotation
			JOINT RightElbow
			{
				OFFSET 0.00 -0.1475 0.00
				CHANNELS 2 Zrotation Yrotation
				JOINT RightWrist
				{
					OFFSET 0.00 -0.1605 0.00
					CHANNELS 2 Zrotation Xrotation
					End Site
					{
						OFFSET 0.0040 -0.1068 0.0006
					}
				}
			}
		}
		JOINT LeftShoulder
		{
			OFFSET 0.0119 0.2289 -0.1181
			CHANNELS 3 Zrotation Xrotation Yrotation
			JOINT LeftElbow
			{
				OFFSET 0.00 -0.1475 0.00
				CHANNELS 2 Zrotation Yrotation
				JOINT LeftWrist
				{
					OFFSET 0.00 -0.1605 0.00
					CHANNELS 2 Zrotation Xrotation
					End Site
					{
						OFFSET 0.0040 -0.1068 -0.0006
					}
				}
			}
		}
	}
	JOINT RightHip
	{
		OFFSET 0.0316 -0.0424 0.0458
		CHANNELS 3 Zrotation Xrotation Yrotation
		JOINT RightKnee
		{
			OFFSET 0.00 -0.2438 0.00
			CHANNELS 1 Zrotation
			JOINT RightAnkle
			{
				OFFSET 0.00 -0.2449 0.00
				CHANNELS 3 Zrotation Xrotation Yrotation
				End Site
				{
					OFFSET 0.1237 -0.0542 0.0051
				}
			}
		}
	}
	JOINT LeftHip
	{
		OFFSET 0.0316 -0.0424 -0.0458
		CHANNELS 3 Zrotation Xrotation Yrotation
		JOINT LeftKnee
		{
			OFFSET 0.00 -0.2438 0.00
			CHANNELS 1 Zrotation
			JOINT LeftAnkle
			{
				OFFSET 0.00 -0.2449 0.00
				CHANNELS 3 Zrotation Xrotation Yrotation
				End Site
				{
					OFFSET 0.1237 -0.0542 -0.0051
				}
			}
		}
	}
}
MOTION
Frames: 27
Frame Time: 0.02
-0.20363 -0.62455 0.13757 41.99754 63.52328 -15.9852 45.10918 2.28761 -4.85296 -11.84652 -4.28049 -0.83027 -3.06973 -144.72852 -77.92885 93.45656 107.04099 -47.1084 -6.12572 127.07121 37.79417 -43.67017 105.3681 -115.38736 -29.51569 8.74483 43.99241 13.91815 47.61092 5.25849 -54.08198 20.39792 -21.41857 40.77511 -5.89383 14.34529 -0.46057 -34.37206 -6.53306 -2.08798
-0.20406 -0.62474 0.13717 42.38689 63.64081 -16.42709 44.73231 2.54749 -4.28391 -11.87234 -4.04276 -0.83029 -3.64587 -144.14357 -79.46053 93.94178 109.78473 -47.79685 -6.44103 126.2521 37.72514 -42.8602 105.54364 -114.93423 -29.04228 8.69688 45.03459 13.92894 45.50703 4.57708 -54.09311 19.08321 -21.44025 40.62148 -5.93566 14.21625 -0.45989 -34.62187 -6.52981 -2.23997
-0.20455 -0.62503 0.13678 42.91171 63.69173 -16.98415 44.28433 2.83033 -3.53093 -11.67347 -3.78826 -0.83032 -4.24547 -143.45411 -81.37095 94.5212 113.20526 -48.67608 -6.83338 125.64206 37.83274 -42.26994 105.77891 -115.29254 -29.55794 8.69427 46.38672 13.92356 42.5862 3.7045 -54.08792 17.62558 -21.4304 40.54142 -6.01041 14.06351 -0.45888 -34.96783 -6.38759 -2.4066
-0.20501 -0.62527 0.13639 43.28504 63.5866 -17.41183 43.98377 3.10513 -2.83642 -11.27736 -3.56412 -0.83034 -4.59778 -142.85776 -82.99376 95.01756 116.09604 -49.34965 -7.16844 125.0754 37.86391 -41.56838 105.9931 -115.16981 -29.54523 8.66092 47.79584 13.8987 39.73676 2.93469 -54.06168 16.23515 -21.37836 40.63877 -6.06322 13.90816 -0.45798 -35.29372 -6.29933 -2.54642
-0.20547 -0.6255 0.13596 44.01829 64.21527 -18.14803 43.22724 3.37261 -2.23299 -12.05523 -3.25357 -0.83036 -5.88736 -142.08171 -85.09574 95.67486 119.90747 -50.50598 -7.59632 123.94937 37.87265 -40.88438 106.18682 -115.44735 -29.79557 8.66415 48.43365 13.98676 38.09007 2.09646 -54.1532 14.82708 -21.55806 39.90499 -6.14562 13.80889 -0.45717 -35.52801 -6.2504 -2.76749
-0.20595 -0.6258 0.13562 44.0582 63.36586 -18.28977 43.36608 3.65813 -1.4145 -10.44788 -3.10643 -0.83039 -5.30864 -141.63795 -86.30172 96.03164 121.9855 -50.7263 -7.85099 123.98973 37.96733 -40.23185 106.43144 -115.12749 -29.76711 8.60601 50.67409 13.83617 33.82181 1.35664 -53.99856 13.4252 -21.25611 40.84595 -6.17381 13.58996 -0.45614 -35.9658 -6.08841 -2.82661
-0.20653 -0.62626 0.13555 41.93978 57.87237 -16.57849 46.32282 4.00709 0.11012 -1.31398 -3.52709 -0.83046 1.12106 -142.29124 -84.82954 95.42121 118.89822 -48.10621 -7.59131 127.68829 38.32075 -39.56118 106.85167 -112.7661 -28.63588 8.3461 57.93115 13.02741 21.85077 0.92565 -53.14349 12.07392 -19.55959 47.03972 -6.04845 13.01444 -0.45424 -37.03004 -5.62275 -2.40597
-0.20713 -0.6268 0.13557 39.15443 50.99357 -14.29556 50.12673 4.36952 1.8168 10.0407 -4.09359 -0.83054 9.31134 -143.25582 -82.46235 94.52305 114.07959 -44.57533 -7.15755 132.47111 38.74527 -38.92681 107.31241 -109.81635 -27.21515 8.02699 66.67414 11.97983 7.39149 0.60216 -52.04648 10.7365 -17.39351 54.80486 -5.86658 12.32528 -0.45217 -38.28022 -5.05248 -1.82735
-0.20769 -0.62733 0.13554 36.8176 45.13912 -12.39924 53.32135 4.71324 3.33506 19.70872 -4.51748 -0.83062 16.23613 -143.97484 -80.57859 93.8355 110.19705 -41.60025 -6.81503 136.4323 39.09519 -38.31458 107.72101 -107.27491 -25.99604 7.75012 74.28781 11.04343 -5.49019 0.23589 -51.07564 9.39316 -15.48912 61.41504 -5.70797 11.70831 -0.45038 -39.3864 -4.54637 -1.34034
-0.20835 -0.62779 0.13552 33.88756 37.64939 -9.98658 57.44019 5.11159 5.3 32.18794 -5.256 -0.8307 25.09388 -145.12221 -78.38736 92.82734 105.72056 -38.03812 -6.42509 141.76407 39.62516 -37.55091 108.27117 -104.17909 -24.51672 7.41192 83.79321 10.09451 -20.2772 -0.16265 -50.03326 8.03771 -13.3774 69.8512 -5.56102 11.00239 -0.44777 -40.74345 -3.96521 -0.77049
-0.20882 -0.62839 0.13552 32.0128 33.19522 -8.49323 59.86146 5.39822 6.38283 39.40723 -5.38287 -0.83076 30.38283 -145.46203 -76.61527 92.40087 102.04541 -35.47329 -6.09022 144.5271 39.80027 -37.10287 108.53901 -102.07121 -23.49524 7.18441 89.75236 9.11615 -31.68791 -0.46604 -49.0858 6.71942 -11.58936 74.90366 -5.37558 10.45685 -0.4468 -41.62552 -3.51743 -0.33507
-0.20876 -0.62937 0.13555 33.38894 37.8303 -9.84088 57.16797 5.38016 4.92002 30.94276 -3.70958 -0.83078 25.04743 -143.41528 -76.24984 93.79197 101.14085 -35.94136 -5.96139 139.65803 38.92817 -37.56423 107.98085 -102.97953 -23.83201 7.29817 85.16114 8.10647 -33.05706 -0.53109 -48.43245 5.44289 -10.78521 69.81689 -5.10085 10.3664 -0.45063 -41.10943 -3.4634 -0.31317
-0.20852 -0.63047 0.13561 35.81769 45.50134 -12.10294 52.77691 5.24791 2.57443 17.22003 -1.43031 -0.83077 16.12096 -140.5606 -76.32918 95.75128 101.07539 -37.4325 -5.89162 132.21344 37.70356 -38.3309 107.14076 -104.87308 -24.63138 7.5214 77.01967 7.07718 -30.95861 -0.50345 -47.88795 4.21415 -10.32771 61.34519 -4.78878 10.44407 -0.45608 -40.11586 -3.54805 -0.43129
-0.20836 -0.63148 0.13568 37.64902 51.53938 -13.83854 49.30927 5.16297 0.67489 6.30997 0.52243 -0.83078 9.0636 -138.1292 -76.18356 97.358 100.53263 -38.41822 -5.78676 126.1303 36.67402 -38.92776 106.45706 -106.21519 -25.19779 7.68021 70.76337 6.06233 -30.51576 -0.5186 -47.31179 3.00278 -9.72805 54.69483 -4.49131 10.45538 -0.46064 -39.36762 -3.56987 -0.48282
-0.20818 -0.63263 0.13566 39.95696 58.59184 -16.02059 45.23509 5.09723 -1.40754 -6.30022 2.6877 -0.83078 1.07521 -135.4719 -76.10483 99.35449 100.3295 -39.5456 -5.71008 119.29132 35.50567 -39.66251 105.66743 -107.96893 -25.84678 7.89816 63.4207 5.01531 -29.82459 -0.52751 -46.6528 1.62934 -9.04748 46.91191 -4.20107 10.4212 -0.46581 -38.50724 -3.58668 -0.54123
-0.20801 -0.63352 0.13583 41.53441 64.27865 -17.49972 42.00326 4.96503 -3.32113 -16.65719 4.55395 -0.83078 -5.86056 -133.08892 -76.00215 100.6761 99.6477 -40.62969 -5.5918 113.38518 34.53451 -40.17533 105.01596 -109.11452 -26.44217 8.02063 57.46724 4.03435 -28.79348 -0.52855 -46.19433 0.60145 -8.62339 40.65418 -3.88867 10.52204 -0.47011 -37.76346 -3.64882 -0.62076
-0.20794 -0.63366 0.13654 40.80761 65.3861 -16.79402 41.5686 4.67006 -4.55367 -19.42818 5.46442 -0.83078 -8.93077 -131.6642 -75.74758 100.00934 97.38793 -41.37269 -5.33815 110.81477 34.25599 -40.05881 104.94081 -108.27612 -26.73143 7.84513 56.30717 3.23745 -27.66633 -0.53264 -46.27313 0.54518 -8.82981 39.51129 -3.51547 10.96576 -0.47153 -37.4674 -3.7981 -0.72438
-0.20788 -0.63355 0.13745 39.31718 65.03256 -15.35477 42.02627 4.3135 -5.58673 -19.77553 6.04983 -0.83078 -10.84439 -130.54262 -75.456 98.64177 94.63701 -42.0349 -5.04271 109.243 34.17626 -39.69802 104.98921 -106.80695 -26.95845 7.57168 56.64467 2.51002 -26.30464 -0.53211 -46.54951 0.83038 -9.28358 39.99922 -3.12318 11.53842 -0.47203 -37.30278 -3.9896 -0.84556
-0.20782 -0.63356 0.13826 38.20045 65.39928 -14.26897 42.03367 3.98968 -6.7111 -21.29484 6.7736 -0.83078 -13.34547 -129.27693 -75.16783 97.58816 92.15128 -42.72124 -4.77114 107.12264 33.96445 -39.40986 104.90029 -105.67052 -27.24737 7.34798 56.22958 1.75339 -25.04217 -0.53282 -46.72968 0.93896 -9.62164 39.68205 -2.74558 12.04481 -0.473 -37.07086 -4.16491 -0.95903
-0.20776 -0.63353 0.13908 37.01171 65.63776 -13.13492 42.16846 3.6415 -7.86271 -22.69945 7.56026 -0.83078 -15.698 -128.00455 -74.94189 96.57653 89.51085 -43.5004 -4.48049 105.31046 33.91622 -39.29165 105.15055 -104.37144 -27.41877 7.10502 55.99137 0.98376 -23.69371 -0.53388 -46.93968 1.13614 -9.98482 39.51363 -2.34113 12.58783 -0.47378 -36.85336 -4.33202 -1.0747
-0.2077 -0.63353 0.13993 35.77265 65.75143 -11.90906 42.27537 3.33132 -8.89959 -23.69796 8.12797 -0.83078 -18.05331 -126.83548 -74.58357 95.29961 87.07234 -44.04809 -4.21945 103.13033 33.57955 -38.76096 104.71947 -103.25121 -27.80361 6.87869 55.79173 0.26068 -22.51065 -0.53431 -47.13422 1.23375 -10.35076 39.47185 -1.98871 13.08496 -0.47473 -36.64448 -4.52485 -1.18994
-0.20768 -0.63369 0.14077 34.62287 65.91324 -10.65867 42.06257 3.13791 -9.65638 -24.15515 8.19187 -0.83078 -20.55167 -125.82414 -73.7546 93.49456 85.24892 -44.02298 -4.04561 99.67143 32.39594 -37.1222 102.44675 -102.75424 -28.88162 6.71187 55.30121 -0.373 -21.87937 -0.53507 -47.22716 0.93284 -10.65554 39.34912 -1.78392 13.40668 -0.47634 -36.41805 -4.77461 -1.28382
-0.20767 -0.63387 0.14163 33.436 65.97853 -9.32736 41.80305 2.98588 -10.30203 -24.26326 8.03939 -0.83078 -23.09691 -124.9218 -72.80393 91.43846 83.65262 -43.75493 -3.90348 95.82415 30.91805 -35.08275 99.47391 -102.45971 -30.15758 6.56685 54.8207 -0.95771 -21.43305 -0.53569 -47.29879 0.52633 -10.95397 39.31961 -1.63253 13.68031 -0.47813 -36.19952 -5.0489 -1.3788
-0.20764 -0.63403 0.14248 32.23353 66.04915 -7.99618 41.5905 2.81779 -11.00257 -24.51364 7.96925 -0.83078 -25.70655 -124.00674 -71.99304 89.47188 81.9903 -43.56124 -3.74988 92.1795 29.57686 -33.24137 96.77523 -102.08279 -31.28272 6.41779 54.37442 -1.55055 -20.89429 -0.53626 -47.38703 0.19525 -11.25961 39.28605 -1.45727 13.98612 -0.47982 -35.98625 -5.31364 -1.48318
-0.20766 -0.63423 0.14335 31.14149 66.23176 -6.79497 41.30292 2.63654 -11.67986 -24.75282 7.95663 -0.83078 -27.93896 -122.94025 -70.86116 87.58187 80.15728 -43.51355 -3.58305 88.4573 28.22669 -31.31535 94.26038 -101.64014 -32.66357 6.2395 53.81683 -2.20172 -20.37954 -0.53705 -47.45452 -0.23624 -11.55767 39.14853 -1.2794 14.25217 -0.48157 -35.74134 -5.57286 -1.54706
-0.20758 -0.63435 0.14417 29.82123 66.17892 -5.31292 41.14462 2.49251 -12.3796 -24.96226 7.77582 -0.83078 -30.95439 -122.21881 -70.3234 85.48569 78.73633 -43.11 -3.45111 84.79226 26.82677 -29.48474 91.20247 -101.39527 -33.55878 6.12992 53.47136 -2.71928 -19.86343 -0.53743 -47.55566 -0.49249 -11.86443 39.22504 -1.12023 14.58886 -0.48326 -35.56075 -5.84926 -1.69456
-0.20725 -0.63425 0.14485 27.87583 65.48316 -3.0808 41.39174 2.449 -13.18542 -25.18867 7.19282 -0.83078 -36.36529 -122.35425 -71.85568 82.85657 78.43299 -41.73503 -3.41431 81.37468 25.326 -27.92126 86.74949 -101.60847 -33.07006 6.19357 53.73435 -2.89171 -19.29368 -0.53681 -47.77032 -0.20268 -12.21493 39.90059 -0.99682 15.12346 -0.48469 -35.571 -6.16177 -2.07776
